# xmcd
#
# Track frame offsets:
#	150
#	20697
#	40377
#
# Disc length: 934 seconds
#
# Revision: 0
# Processed by: cddbd v1.5.1PL2 Copyright (c) Steve Scherf et al.
# Submitted via: audiograbber 1.83.01
#
DISCID=2003a403
DTITLE=Ogo - Old Man Stories E.P
DYEAR=2006
DGENRE=Acoustic
TTITLE0=Old Man Stories
TTITLE1=Say Something
TTITLE2=Scared Of Living
EXTD=(c) Ogo Nzeakor, see Ogo live every Sunday and Tuesday night at Hannah's B
EXTD=ar, Leece Street, Liverpool (submitted by W. McAllister)
EXTT0=
EXTT1=
EXTT2=
PLAYORDER=
